HIERARCHY
ROOT SimulationBone
{
	OFFSET 0.000000 0.000000 0.000000
	CHANNELS 6 Xposition Yposition Zposition Zrotation Yrotation Xrotation 
	JOINT Hips
	{
		OFFSET 0.000000 0.000000 0.000000
		CHANNELS 6 Xposition Yposition Zposition Zrotation Yrotation Xrotation 
		JOINT RightUpLeg
		{
			OFFSET 0.103458 1.857820 10.548502
			CHANNELS 3 Zrotation Yrotation Xrotation
			JOINT RightLeg
			{
				OFFSET 43.500000 -0.000023 -0.000011
				CHANNELS 3 Zrotation Yrotation Xrotation
				JOINT RightFoot
				{
					OFFSET 42.372192 0.000038 0.000002
					CHANNELS 3 Zrotation Yrotation Xrotation
					JOINT RightToe
					{
						OFFSET 17.299992 -0.000004 0.000006
						CHANNELS 3 Zrotation Yrotation Xrotation
						End Site
						{
							OFFSET 0.000000 0.000000 0.000000
						}
					}
				}
			}
		}
		JOINT LeftUpLeg
		{
			OFFSET 0.103461 1.857814 -10.548508
			CHANNELS 3 Zrotation Yrotation Xrotation
			JOINT LeftLeg
			{
				OFFSET 43.500042 -0.000015 0.000008
				CHANNELS 3 Zrotation Yrotation Xrotation
				JOINT LeftFoot
				{
					OFFSET 42.372253 0.000008 0.000006
					CHANNELS 3 Zrotation Yrotation Xrotation
					JOINT LeftToe
					{
						OFFSET 17.299973 -0.000014 0.000011
						CHANNELS 3 Zrotation Yrotation Xrotation
						End Site
						{
							OFFSET 0.000000 0.000000 0.000000
						}
					}
				}
			}
		}
		JOINT Spine
		{
			OFFSET 6.901966 -2.603737 -0.000007
			CHANNELS 3 Zrotation Yrotation Xrotation
			JOINT Spine1
			{
				OFFSET 12.588102 0.000017 0.000001
				CHANNELS 3 Zrotation Yrotation Xrotation
				JOINT Spine2
				{
					OFFSET 12.343197 -0.000013 0.000000
					CHANNELS 3 Zrotation Yrotation Xrotation
					JOINT Neck
					{
						OFFSET 25.832905 -0.000008 0.000000
						CHANNELS 3 Zrotation Yrotation Xrotation
						JOINT Head
						{
							OFFSET 11.766610 0.000009 -0.000002
							CHANNELS 3 Zrotation Yrotation Xrotation
							End Site
							{
								OFFSET 0.000000 0.000000 0.000000
							}
						}
					}
					JOINT RightShoulder
					{
						OFFSET 19.745903 -1.480377 6.000115
						CHANNELS 3 Zrotation Yrotation Xrotation
						JOINT RightArm
						{
							OFFSET 11.284125 -0.000014 -0.000024
							CHANNELS 3 Zrotation Yrotation Xrotation
							JOINT RightForeArm
							{
								OFFSET 33.000046 -0.000012 0.000029
								CHANNELS 3 Zrotation Yrotation Xrotation
								JOINT RightHand
								{
									OFFSET 25.199989 0.000034 0.000012
									CHANNELS 3 Zrotation Yrotation Xrotation
									End Site
									{
										OFFSET 0.000000 0.000000 0.000000
									}
								}
							}
						}
					}
					JOINT LeftShoulder
					{
						OFFSET 19.746098 -1.480362 -6.000071
						CHANNELS 3 Zrotation Yrotation Xrotation
						JOINT LeftArm
						{
							OFFSET 11.284137 -0.000006 -0.000008
							CHANNELS 3 Zrotation Yrotation Xrotation
							JOINT LeftForeArm
							{
								OFFSET 33.000095 0.000017 0.000000
								CHANNELS 3 Zrotation Yrotation Xrotation
								JOINT LeftHand
								{
									OFFSET 25.199778 0.000144 0.000423
									CHANNELS 3 Zrotation Yrotation Xrotation
									End Site
									{
										OFFSET 0.000000 0.000000 0.000000
									}
								}
							}
						}
					}
				}
			}
		}
	}
}
MOTION
Frames: 13
Frame Time: 0.016667
-167.834796 0.000000 -3.775398 0.000000 -58.905285 0.000000 -17.614224 87.753227 -4.322520 71.264747 -3.888994 177.760238 -176.293917 -9.203902 -175.774536 -53.372477 -2.512014 -4.244437 70.064161 0.051670 -9.198062 21.454563 0.003107 0.000012 122.512351 -2.090499 -174.002389 -40.135270 3.429773 9.059707 83.004146 -4.852445 7.391218 21.454553 -0.003089 0.000000 15.328007 1.486944 -2.378481 20.585965 3.373341 -4.455870 20.268346 3.346246 -4.476133 2.939916 -1.926409 5.965970 -30.846110 1.053401 5.448903 -148.218996 -75.578730 -33.933978 -16.486062 49.913509 -1.101485 -107.339509 0.059086 3.116213 -11.180906 -7.360406 38.016859 -171.330814 73.520248 10.343079 53.864766 -45.039735 -56.005149 -83.261774 5.508999 -2.393997 -2.955560 17.261187 -7.277874 
-166.316633 0.000000 -0.820488 0.000000 -61.158254 0.000000 -16.478008 86.846724 -3.458880 72.497306 -3.329177 178.774936 -174.877580 -8.098532 -172.540533 -60.281329 -3.836326 -5.104737 70.033381 0.180106 -10.638976 21.454562 0.003115 0.000018 125.755802 -2.968097 -175.498432 -34.371262 3.402716 10.432102 82.406458 -4.416948 13.922885 21.454551 -0.003098 -0.000002 15.326257 1.560713 -2.270013 20.584198 3.500278 -4.227581 20.266434 3.474555 -4.248622 2.830911 -2.280011 5.361014 -30.258038 0.852668 4.854247 -150.375439 -75.029193 -31.748929 -13.837930 51.171882 1.212640 -102.985951 -0.635517 2.973693 -11.430488 -7.631508 38.531225 -169.422237 72.741448 12.300909 50.603770 -47.421395 -51.066098 -83.539507 5.651181 -2.416422 -4.482595 16.435653 -8.664905 
-164.852806 0.000000 2.296825 0.000000 -63.310656 0.000000 -15.526103 85.764259 -2.829019 73.469808 -2.653823 -179.999376 -174.470284 -7.084792 -171.706653 -68.321241 -3.130228 -5.365026 70.294400 0.488705 -10.514705 21.454562 0.003115 0.000017 127.868216 -3.439606 -174.304966 -33.799873 3.746361 10.865537 79.753229 -5.744345 8.344682 21.454553 -0.003095 -0.000002 15.157175 1.692195 -2.148712 20.247066 3.734249 -3.969686 19.929097 3.710076 -3.992155 3.347966 -2.793297 4.742552 -29.901980 0.533754 4.298250 -150.990960 -74.404675 -31.137925 -11.093827 52.292276 4.697227 -98.335872 -1.750022 2.842407 -12.005252 -8.134920 38.815657 -167.712275 71.910885 14.059576 46.759884 -49.259296 -46.113502 -83.814097 5.699999 -2.431386 -5.487107 15.638165 -9.926518 
-163.440771 0.000000 5.567507 0.000000 -65.354200 0.000000 -14.736276 84.569743 -2.372701 74.331790 -1.968107 -178.848724 -174.894941 -6.206780 -172.639626 -77.005010 -1.164882 -5.570852 70.776107 0.917846 -9.677081 21.454561 0.003112 0.000014 129.194090 -3.719467 -171.755970 -36.986023 4.240972 10.557006 77.766933 -8.093148 -2.282465 21.454554 -0.003087 -0.000000 14.899337 1.834709 -1.975683 19.734539 3.979509 -3.611043 19.416318 3.957495 -3.635014 4.272273 -3.399111 4.091758 -29.734980 0.139722 3.749573 -151.198515 -73.823352 -30.941944 -8.123098 53.193642 9.152943 -93.595467 -3.331050 2.739174 -12.659674 -8.627788 38.913636 -166.415596 71.065988 15.397296 42.250005 -50.715586 -40.960885 -84.137446 5.673047 -2.443203 -6.289927 14.982740 -11.006055 
-162.077985 0.000000 8.982523 0.000000 -67.282842 0.000000 -14.078356 83.327087 -2.035730 75.219047 -1.382633 -178.054134 -175.942285 -5.584712 -174.699191 -85.856023 1.210579 -6.053764 71.400843 1.410908 -8.978221 21.454560 0.003108 0.000013 130.104434 -3.900201 -169.211516 -42.509443 4.525150 9.705524 78.792583 -9.563230 -10.837649 21.454555 -0.003082 0.000001 14.631281 1.941651 -1.711421 19.206239 4.140407 -3.078130 18.887753 4.121606 -3.103099 5.384058 -4.034272 3.393394 -29.714614 -0.285174 3.177508 -151.984985 -73.387920 -30.147965 -4.841703 53.795405 14.342134 -88.971498 -5.433552 2.680890 -13.145730 -8.868773 38.859810 -165.698421 70.249381 16.140684 36.909669 -51.911335 -35.348847 -84.561491 5.587850 -2.456212 -7.214527 14.571452 -11.841897 
-160.761904 0.000000 12.532839 0.000000 -69.092648 0.000000 -13.516127 82.119462 -1.775750 76.225226 -0.938094 -177.823144 -177.442402 -5.311596 -177.228287 -94.469037 3.235652 -6.869722 72.115143 1.953985 -8.994089 21.454557 0.003107 0.000016 131.053108 -4.091292 -167.723344 -48.869004 4.364491 8.584313 83.476831 -8.580661 -12.350409 21.454552 -0.003085 0.000001 14.419634 1.987307 -1.329651 18.796390 4.164136 -2.319644 18.477672 4.149914 -2.344784 6.468565 -4.653307 2.658885 -29.779852 -0.694432 2.570500 -153.971954 -73.107721 -28.117605 -1.284640 54.011970 19.931843 -84.578418 -8.008773 2.670045 -13.303727 -8.752840 38.554178 -165.699992 69.505631 16.143244 30.458855 -52.829137 -29.013438 -85.136859 5.456009 -2.473437 -8.414961 14.411348 -12.458410 
-159.489985 0.000000 16.209418 0.000000 -70.781600 0.000000 -13.011761 81.107079 -1.578647 77.323543 -0.381832 -178.079550 -179.498970 -5.306600 -179.536222 -102.559504 4.655165 -7.899307 73.015104 2.639558 -9.187892 21.454557 0.003107 0.000019 132.799804 -4.591994 -167.078148 -54.221743 4.141776 7.454321 89.291813 -6.807792 -10.502401 21.454551 -0.003092 0.000000 14.284600 2.029700 -0.859803 18.543308 4.170874 -1.383517 18.224398 4.162307 -1.408728 7.334308 -5.269874 1.986879 -29.794517 -1.034073 1.993205 -156.573984 -72.671009 -25.457033 2.198477 53.757726 25.345127 -80.164577 -10.560838 2.650732 -13.324309 -8.724822 37.379548 -166.560418 68.881915 15.257385 22.513356 -53.076404 -22.013489 -85.908937 5.265722 -2.492792 -9.358624 14.153734 -13.225526 
-158.259684 0.000000 20.003227 0.000000 -72.349353 0.000000 -12.548474 80.433487 -1.436443 78.432784 0.479567 -178.649959 177.664115 -5.411033 178.912391 -109.841074 5.430107 -8.991812 74.176410 3.538626 -8.894943 21.454559 0.003108 0.000017 135.897456 -5.618579 -166.853950 -57.141451 4.272579 6.435182 93.600020 -5.632485 -10.093328 21.454553 -0.003096 -0.000001 14.219471 2.118275 -0.351307 18.432205 4.265353 -0.360390 18.113151 4.262970 -0.386203 7.840435 -5.910340 1.460995 -29.659944 -1.265333 1.500283 -158.734919 -71.849465 -23.252114 5.227192 53.054698 30.074245 -75.539353 -12.565948 2.595032 -13.429246 -9.123019 34.992791 -168.417154 68.498282 13.338649 13.322967 -52.303991 -14.891457 -86.948547 4.957567 -2.512777 -9.602570 13.447850 -14.396715 
-157.068458 0.000000 23.905230 0.000000 -73.796981 0.000000 -12.193606 80.098557 -1.322622 79.326556 1.306587 -179.293093 173.650197 -5.419600 177.997571 -116.064297 5.800293 -10.077183 75.394468 4.594766 -8.077099 21.454562 0.003111 0.000017 139.772212 -6.798792 -166.926722 -58.143992 4.370438 5.493264 96.645024 -4.760332 -10.611946 21.454557 -0.003095 -0.000001 14.152686 2.186720 0.123438 18.316853 4.326139 0.592482 17.997776 4.329516 0.566280 8.031987 -6.571975 1.010352 -29.496519 -1.427094 1.035483 -159.277948 -70.978093 -22.708003 7.696003 52.133262 34.217037 -71.117882 -13.855361 2.493973 -13.694395 -9.298649 32.680245 -171.465274 68.795862 10.187195 4.555150 -50.993505 -8.543492 -88.433334 4.304724 -2.536877 -9.801438 12.272842 -15.446247 
-155.913764 0.000000 27.906394 0.000000 -75.126724 0.000000 -12.008997 80.060708 -1.210154 79.815537 1.725772 -179.839113 168.193053 -5.199545 177.443965 -120.980684 6.018661 -11.135980 76.468944 5.698572 -6.934353 21.454562 0.003115 0.000023 143.745389 -7.717515 -167.282198 -58.031984 4.022139 4.623233 99.252529 -3.905993 -10.529146 21.454556 -0.003088 0.000001 14.019605 2.158422 0.520155 18.063847 4.208915 1.372379 17.744901 4.217004 1.346882 7.966228 -7.192390 0.538555 -29.406621 -1.578057 0.532762 -157.803259 -70.454205 -24.236414 9.705873 51.171596 38.041338 -67.452205 -14.419397 2.375697 -14.237626 -8.559097 31.913258 -176.040133 70.104378 5.473148 -2.635895 -49.972671 -3.275306 -90.553677 3.178633 -2.558669 -10.625673 10.693490 -15.941078 
-154.793059 0.000000 31.997682 0.000000 -76.341752 0.000000 -11.959289 80.256233 -1.113805 80.036465 1.765987 179.601865 161.737486 -4.896895 177.100057 -124.297107 6.129202 -12.037150 77.497169 6.626746 -5.960185 21.454560 0.003116 0.000029 147.859101 -8.357609 -168.311994 -56.932976 3.661893 3.930010 101.386712 -3.201124 -10.007661 21.454555 -0.003081 0.000002 13.853404 2.027486 0.930211 17.741141 3.888102 2.162001 17.422476 3.900960 2.138449 7.554944 -7.514156 0.007234 -29.206257 -1.769343 -0.005866 -156.015016 -70.409501 -26.079953 11.623961 50.010726 41.611526 -64.991817 -14.543524 2.292389 -15.212407 -7.028164 33.239494 178.382876 72.139798 -0.236326 -8.391745 -49.665709 1.061871 -93.450292 2.011027 -2.599070 -11.628365 8.863344 -16.667075 
-153.703798 0.000000 36.170059 0.000000 -77.445945 0.000000 -11.987769 80.638928 -1.056133 80.165322 1.515638 178.931751 154.849786 -4.639599 176.896368 -125.723954 6.141172 -12.641787 78.529506 7.190533 -5.579826 21.454558 0.003111 0.000026 152.288818 -8.699582 -170.338450 -54.826435 3.742270 3.528113 102.780091 -2.785336 -9.493956 21.454555 -0.003079 0.000002 13.695457 1.802025 1.433823 17.431918 3.367184 3.124453 17.113714 3.385855 3.104056 6.762111 -7.345109 -0.598766 -28.714823 -2.008343 -0.572797 -155.382568 -70.881767 -26.720796 13.649992 48.439847 44.898195 -63.988755 -14.527574 2.253580 -16.535029 -5.075226 36.418988 172.711682 74.546999 -5.992379 -13.080176 -50.178879 4.626917 -97.113442 1.212797 -2.700591 -12.213956 6.996976 -18.215436 
-152.643439 0.000000 40.414493 0.000000 -78.443720 0.000000 -12.040168 81.254738 -1.030237 80.190169 0.912370 178.342211 147.928482 -4.216795 176.811714 -125.069997 6.072074 -12.920942 79.210399 7.417221 -5.640095 21.454558 0.003107 0.000020 156.992349 -8.574800 -172.906922 -51.711231 3.954319 3.429530 103.164201 -2.654921 -8.801362 21.454555 -0.003082 0.000001 13.522575 1.476256 1.931241 17.084152 2.650814 4.060541 16.766525 2.675138 4.044476 5.922812 -6.935660 -1.243773 -28.054788 -2.149420 -1.198607 -154.927021 -71.559534 -27.173947 15.322956 46.469731 47.981566 -64.036205 -14.432724 2.247140 -17.506548 -3.468691 39.070549 167.373785 76.850470 -11.367193 -16.985264 -50.966905 7.475676 -100.964504 0.574531 -2.832770 -12.519590 5.522118 -19.070153 
